<?xml version="1.0" encoding="utf-8"?>
<!-- Generator: Adobe Illustrator 16.0.0, SVG Export Plug-In . SVG Version: 6.00 Build 0)  -->
<!DOCTYPE svg PUBLIC "-//W3C//DTD SVG 1.1//EN" "http://www.w3.org/Graphics/SVG/1.1/DTD/svg11.dtd">
<svg version="1.1" id="Layer_1" xmlns="http://www.w3.org/2000/svg" xmlns:xlink="http://www.w3.org/1999/xlink" x="0px" y="0px"
	 width="140.58px" height="398.31px" viewBox="409.716 82.979 140.58 398.31" enable-background="new 409.716 82.979 140.58 398.31"
	 xml:space="preserve">
<g>
	<g>
		<g>
			<path fill="#FFFFFF" d="M529.704,115.693L509.003,94.98c-16.013-16.001-41.98-16.001-57.99,0L430.3,115.693
				c-4.576,4.584-4.576,11.988,0,16.574l20.713,20.7c16.01,16.032,41.978,16.032,57.99,0l20.701-20.7
				C534.288,127.682,534.288,120.278,529.704,115.693z M480.007,153.274c-16.179,0-29.285-13.112-29.285-29.297
				s13.106-29.283,29.285-29.283c16.172,0,29.283,13.098,29.277,29.27C509.29,140.162,496.187,153.274,480.007,153.274z"/>
		</g>
		<g>
			<path fill="#FFFFFF" d="M480.007,109.335c-8.093,0-14.648,6.562-14.648,14.642c0,8.093,6.556,14.642,14.648,14.642
				c8.089,0,14.64-6.549,14.64-14.642C494.647,115.897,488.097,109.335,480.007,109.335z"/>
		</g>
	</g>
</g>
<g>
	<path fill="#FFFFFF" d="M431.78,342.559c-0.188-1.197-0.756-2.309-1.624-3.188l-13.574-13.57
		c-5.356-5.357-7.793-12.957-6.545-20.426l14.916-89.529c3.759-22.588,23.312-39.136,46.228-39.136h17.653
		c22.906,0,42.465,16.547,46.228,39.136l14.916,89.529c1.244,7.469-1.192,15.094-6.537,20.426l-13.583,13.57
		c-0.867,0.879-1.44,1.99-1.639,3.188l-23.116,138.73h-7.519c-6.473,0-11.719-5.242-11.719-11.697v-99.598
		c0-3.227-2.624-5.854-5.857-5.854c-3.24,0-5.867,2.627-5.867,5.854v99.598c0,6.455-5.239,11.697-11.709,11.697h-7.521
		L431.78,342.559z"/>
</g>
</svg>
